<?xml version="1.0" encoding="UTF-8" standalone="no"?>
<svg
   xmlns:dc="http://purl.org/dc/elements/1.1/"
   xmlns:cc="http://creativecommons.org/ns#"
   xmlns:rdf="http://www.w3.org/1999/02/22-rdf-syntax-ns#"
   xmlns:svg="http://www.w3.org/2000/svg"
   xmlns="http://www.w3.org/2000/svg"
   enable-background="new"
   id="svg4611"
   height="400"
   width="400"
   version="1.0">
  <metadata
     id="metadata7">
    <rdf:RDF>
      <cc:Work
         rdf:about="">
        <dc:format>image/svg+xml</dc:format>
        <dc:type
           rdf:resource="http://purl.org/dc/dcmitype/StillImage" />
        <dc:title></dc:title>
      </cc:Work>
    </rdf:RDF>
  </metadata>
  <defs
     id="defs4613">
    <filter
       id="filter4257"
       style="color-interpolation-filters:sRGB">
      <feBlend
         id="feBlend4259"
         in2="BackgroundImage"
         mode="lighten" />
    </filter>
  </defs>
  <g
     style="display:inline"
     id="layer1">
    <rect
       y="0"
       x="0"
       height="400"
       width="400"
       id="rect4272"
       style="fill:#a68739;fill-opacity:1" />
  </g>
  <g
     style="display:none"
     id="layer2">
    <rect
       y="0"
       x="0"
       height="400"
       width="400"
       id="rect4272-6"
       style="fill:#eeeb91;fill-opacity:1" />
  </g>
  <g
     style="display:none;filter:url(#filter4257)"
     id="layer3">
    <path
       style="font-style:normal;font-weight:normal;font-size:400px;font-family:'Times New Roman';text-align:start;text-anchor:start;fill:#615e08;fill-opacity:1;stroke:none;stroke-width:1px;stroke-linecap:butt;stroke-linejoin:miter;stroke-opacity:1"
       id="text2396-3"
       d="m 336.91406,125.68359 -7.22656,0 c -0.52082,-9.24484 -3.25519,-15.69015 -8.20313,-19.33593 -4.94788,-3.64588 -12.82548,-5.46879 -23.63281,-5.46875 l -53.32031,0 0.39063,13.08593 c 20.7032,4.16662 39.58339,15.69004 56.64062,34.57032 17.05732,18.8801 25.58596,42.7082 25.58594,71.48437 2e-5,31.90086 -11.84893,59.11437 -35.54688,81.64063 -23.82804,22.52578 -54.8827,33.78879 -93.16406,33.78906 -37.10919,-2.7e-4 -67.4477,-10.67735 -91.01562,-32.03125 -23.567452,-21.22418 -35.351292,-48.43769 -35.351572,-81.64063 2.8e-4,-26.95325 7.35704,-49.8699 22.07031,-68.75 14.583582,-18.75007 34.375232,-31.77089 59.375002,-39.0625 l 1.95313,-13.08593 -54.29687,0 c -12.369542,-4e-5 -20.507552,2.34371 -24.414072,7.03125 -4.03618,4.68745 -6.18462,10.61192 -6.44531,17.77343 l -7.226556,0 0,-61.13281 109.374998,0 -5.07813,58.98438 c -33.59353,10.5468 -50.39039,41.60146 -50.39062,93.16406 2.3e-4,33.72377 8.26845,59.5701 24.80469,77.53906 16.40644,17.9685 35.67725,26.95287 57.8125,26.95313 23.56783,-2.6e-4 43.09906,-9.57056 58.59374,-28.71094 15.36466,-19.01063 23.04695,-43.35956 23.04688,-73.04688 7e-5,-21.4845 -3.45045,-41.08084 -10.35156,-58.78906 -6.90096,-17.5782 -20.11709,-29.94798 -39.64844,-37.10937 l -3.71094,-58.98438 109.375,0 0,61.13281" />
  </g>
  <g
     style="display:inline"
     id="layer4">
    <path
       style="font-style:normal;font-weight:normal;font-size:400px;font-family:'Times New Roman';text-align:start;text-anchor:start;fill:#eed491;fill-opacity:1;stroke:none;stroke-width:1px;stroke-linecap:butt;stroke-linejoin:miter;stroke-opacity:1"
       id="text2396"
       d="m 336.91406,125.68359 -7.22656,0 c -0.52082,-9.24484 -3.25519,-15.69015 -8.20313,-19.33593 -4.94788,-3.64588 -12.82548,-5.46879 -23.63281,-5.46875 l -53.32031,0 0.39063,13.08593 c 20.7032,4.16662 39.58339,15.69004 56.64062,34.57032 17.05732,18.8801 25.58596,42.7082 25.58594,71.48437 2e-5,31.90086 -11.84893,59.11437 -35.54688,81.64063 -23.82804,22.52578 -54.8827,33.78879 -93.16406,33.78906 -37.10919,-2.7e-4 -67.4477,-10.67735 -91.01562,-32.03125 -23.56745,-21.22418 -35.35129,-48.43769 -35.35157,-81.64063 2.79e-4,-26.95325 7.35704,-49.8699 22.070309,-68.75 14.583581,-18.75007 34.375231,-31.77089 59.375001,-39.0625 l 1.95313,-13.08593 -54.29687,0 c -12.369541,-4e-5 -20.507551,2.34371 -24.414071,7.03125 -4.03618,4.68745 -6.18462,10.61192 -6.445309,17.77343 l -7.226561,0 0,-61.132812 109.375001,0 -5.07813,58.984382 c -33.59353,10.5468 -50.39039,41.60146 -50.39062,93.16406 2.3e-4,33.72377 8.26845,59.5701 24.80469,77.53906 16.40644,17.9685 35.67725,26.95287 57.8125,26.95313 23.56783,-2.6e-4 43.09906,-9.57056 58.59374,-28.71094 15.36466,-19.01063 23.04695,-43.35956 23.04688,-73.04688 7e-5,-21.4845 -3.45045,-41.08084 -10.35156,-58.78906 -6.90096,-17.5782 -20.11709,-29.94798 -39.64844,-37.10937 l -3.71094,-58.984382 109.375,0 0,61.132812" />
  </g>
  <g
     style="display:inline"
     id="layer5" />
</svg>
